<svg width="136" height="24" viewBox="0 0 136 24" fill="none" xmlns="http://www.w3.org/2000/svg">
<g clip-path="url(#clip0)">
<path fill-rule="evenodd" clip-rule="evenodd" d="M59.9724 15.2195H65.1955V8.19512H59.9724C59.0712 8.19512 58.2314 9.0443 58.2314 9.95122V13.4634C58.2314 14.3705 59.0712 15.2195 59.9724 15.2195ZM80.8647 15.2195H86.0878V8.19512H80.8647C79.9635 8.19512 79.1237 9.0443 79.1237 9.95122V13.4634C79.1237 14.3705 79.9635 15.2195 80.8647 15.2195ZM68.6775 5.56098V17.8537C68.6775 18.2411 68.1923 18.7317 67.807 18.7317L66.0663 18.7502C65.6808 18.7502 65.1955 18.2412 65.1955 17.8537V17.2683L64.4055 18.2251C64.1649 18.5551 63.5711 18.7317 63.1643 18.7317H59.9724C57.1717 18.7317 54.7493 16.2818 54.7493 13.4634V9.95122C54.7493 7.13287 57.1717 4.68293 59.9724 4.68293H67.807C68.1917 4.68293 68.6775 5.17398 68.6775 5.56098ZM89.5698 5.56098V17.8537C89.5698 18.2411 89.0845 18.7317 88.6993 18.7317L86.9586 18.7502C86.5731 18.7502 86.0878 18.2412 86.0878 17.8537V17.2683L85.2978 18.2251C85.0572 18.5551 84.4634 18.7317 84.0566 18.7317H80.8647C78.064 18.7317 75.6416 16.2818 75.6416 13.4634V9.95122C75.6416 7.13287 78.064 4.68293 80.8647 4.68293H88.6993C89.084 4.68293 89.5698 5.17398 89.5698 5.56098ZM31.5357 8.19512H26.3126C25.4112 8.19512 24.5716 9.0443 24.5716 9.95122V13.4634C24.5716 14.3706 25.4112 15.2195 26.3126 15.2195H31.5357V8.19512ZM35.0177 5.56098V18.7317V19.0244C35.0177 21.8427 32.5954 24 29.7947 24H27.1033C26.7028 24 26.3255 23.8111 26.0839 23.4895L24.5519 21.4492C24.2975 21.1106 24.4398 20.4878 24.8618 20.4878H29.7947C30.6959 20.4878 31.5357 19.9313 31.5357 19.0244V18.7317H26.3126C23.5121 18.7317 21.0896 16.2818 21.0896 13.4634V9.95122C21.0896 7.133 23.5121 4.68293 26.3126 4.68293H29.5045C29.9039 4.68293 30.3393 5.00703 30.6213 5.26829L31.5357 6.14634V5.56098C31.5357 5.17411 32.0219 4.68293 32.4062 4.68293H34.1472C34.5323 4.68293 35.0177 5.17332 35.0177 5.56098ZM3.67931 13.4634C3.67931 14.3703 4.51909 15.2195 5.42034 15.2195H10.6434V8.19512H5.42034C4.51909 8.19512 3.67931 9.0443 3.67931 9.95122V13.4634ZM13.2549 0C13.6403 0 14.1255 0.490521 14.1255 0.878049V17.8537C14.1255 18.2411 13.6403 18.7317 13.2549 18.7317H11.5139C11.1287 18.7317 10.6434 18.2413 10.6434 17.8537V17.2683L9.73059 18.2535C9.48329 18.5306 9.00639 18.7317 8.61221 18.7317H5.42034C2.61964 18.7317 0.197266 16.2818 0.197266 13.4634V9.97802C0.197266 7.15967 2.61964 4.68293 5.42034 4.68293H10.6434V0.878049C10.6434 0.490521 11.1287 0 11.5139 0H13.2549ZM49.2361 11.7073L54.0822 5.52006C54.3518 5.18284 54.1134 4.68171 53.6834 4.68171H50.9117C50.7021 4.68171 50.5037 4.77664 50.3711 4.94015L45.4639 11.122V0.878049C45.4639 0.490521 44.9785 0 44.5934 0H42.8523C42.4671 0 41.9818 0.490521 41.9818 0.878049V17.8537C41.9818 18.2412 42.4671 18.7317 42.8523 18.7317H44.5934C44.9786 18.7317 45.4639 18.2412 45.4639 17.8537V12.2927L50.3737 18.4882C50.5061 18.6536 50.7058 18.7502 50.9171 18.7502H53.6859C54.1159 18.7502 54.3546 18.2488 54.0849 17.9117L49.2361 11.7073ZM37.6293 0C37.2443 0 36.7588 0.490521 36.7588 0.878049V2.63415C36.7588 3.02167 37.2443 3.5122 37.6293 3.5122H39.3703C39.7554 3.5122 40.2408 3.02167 40.2408 2.63415V0.878049C40.2408 0.490521 39.7554 0 39.3703 0H37.6293ZM37.6293 4.68293C37.2443 4.68293 36.7588 5.17358 36.7588 5.56098V17.8537C36.7588 18.2411 37.3808 18.75 37.7657 18.75L39.3703 18.7317C39.7554 18.7317 40.2408 18.2411 40.2408 17.8537V5.56098C40.2408 5.17358 39.7554 4.68293 39.3703 4.68293H37.6293ZM16.737 0C16.3519 0 15.8665 0.490521 15.8665 0.878049V2.63415C15.8665 3.02167 16.3519 3.5122 16.737 3.5122H18.478C18.8631 3.5122 19.3485 3.02167 19.3485 2.63415V0.878049C19.3485 0.490521 18.8631 0 18.478 0H16.737ZM16.737 4.68293C16.3519 4.68293 15.8665 5.17358 15.8665 5.56098V17.8537C15.8665 18.2411 16.3519 18.7317 16.737 18.7317H18.478C18.8631 18.7317 19.3485 18.2411 19.3485 17.8537V5.56098C19.3485 5.17358 18.8631 4.68293 18.478 4.68293H16.737ZM73.9006 0.878049V17.8537C73.9006 18.2411 73.4153 18.7317 73.0301 18.7317H71.2891C70.9038 18.7317 70.4186 18.2411 70.4186 17.8537V0.878049C70.4186 0.490521 70.9038 0 71.2891 0H73.0301C73.4153 0 73.9006 0.490521 73.9006 0.878049Z" fill="#A1A3A8"/>
<path fill-rule="evenodd" clip-rule="evenodd" d="M94.9226 1.01258C94.7369 0.748737 94.4112 0.585327 94.0737 0.585327C93.9792 0.585327 93.8855 0.598094 93.7961 0.622775C93.3565 0.733417 93.0519 1.09683 93.0519 1.50791V17.8133C93.0519 18.3197 93.5075 18.7317 94.067 18.7317C94.6272 18.7317 95.082 18.3197 95.082 17.8133V5.11314V4.65184L95.347 5.02718L96.9654 7.31917C97.1527 7.58215 97.4725 7.73961 97.8201 7.73961C98.0049 7.73961 98.188 7.69365 98.3492 7.60684C98.5888 7.47407 98.7576 7.25619 98.8141 7.00852C98.8673 6.77277 98.8183 6.53106 98.6749 6.32765L94.9226 1.01258Z" fill="#A1A3A8"/>
<path fill-rule="evenodd" clip-rule="evenodd" d="M105.328 0.624477C105.234 0.598094 105.139 0.585327 105.044 0.585327C104.705 0.585327 104.379 0.748737 104.194 1.01172L97.2093 10.9048C97.0667 11.1082 97.0169 11.3499 97.0709 11.5857C97.1266 11.8334 97.2962 12.0512 97.535 12.1832C97.697 12.2717 97.8818 12.3193 98.0683 12.3193C98.4151 12.3193 98.734 12.1602 98.9205 11.8955L103.769 5.02633L104.034 4.65099V5.11229V17.8133C104.034 18.3197 104.489 18.7317 105.049 18.7317C105.609 18.7317 106.064 18.3197 106.064 17.8133V1.50706C106.064 1.09768 105.762 0.734268 105.328 0.624477Z" fill="#A1A3A8"/>
<path fill-rule="evenodd" clip-rule="evenodd" d="M116.307 1.1844C116.164 0.826141 115.779 0.585327 115.347 0.585327C115.239 0.585327 115.13 0.600536 115.025 0.630955C114.761 0.713761 114.543 0.897117 114.432 1.13455C114.331 1.34748 114.324 1.58407 114.41 1.80122L117.74 10.2027L117.819 10.4029H117.605H112.92H112.709L112.784 10.2052L114.627 5.29428C114.709 5.07629 114.696 4.84054 114.593 4.63015C114.476 4.39525 114.254 4.21527 113.984 4.13669C113.88 4.10627 113.772 4.09022 113.665 4.09022C113.236 4.09022 112.856 4.34033 112.718 4.71211L107.932 17.5301C107.85 17.7481 107.862 17.9847 107.967 18.1951C108.084 18.43 108.305 18.6092 108.572 18.686C108.672 18.7165 108.777 18.7317 108.887 18.7317C109.321 18.7317 109.704 18.4824 109.841 18.1115L111.997 12.321L112.032 12.2263H112.132H118.443H118.542L118.578 12.3184L120.882 18.1292C121.024 18.49 121.406 18.7317 121.83 18.7317C121.937 18.7317 122.046 18.7156 122.164 18.6827C122.428 18.5999 122.645 18.4165 122.757 18.1799C122.857 17.9661 122.865 17.7287 122.779 17.5132L116.307 1.1844Z" fill="#A1A3A8"/>
<path fill-rule="evenodd" clip-rule="evenodd" d="M133.652 3.7044C133.844 3.90418 134.121 4.01906 134.412 4.01906C134.644 4.01906 134.872 3.94414 135.053 3.80929C135.265 3.65279 135.393 3.43137 135.414 3.1858C135.434 2.9469 135.349 2.71466 135.173 2.53319C133.318 0.607802 130.245 0.585327 130.115 0.585327C125.264 0.585327 123.87 3.8892 123.81 5.63561L123.811 10.8091C123.811 11.3044 124.26 11.7073 124.814 11.7073C125.368 11.7073 125.817 11.3044 125.817 10.8091L125.817 5.67058C125.832 5.32762 126.083 2.38169 130.113 2.38169C130.136 2.38169 132.41 2.41748 133.652 3.7044Z" fill="#A1A3A8"/>
<path fill-rule="evenodd" clip-rule="evenodd" d="M124.043 13.1791C123.885 13.3511 123.803 13.5698 123.81 13.7962C123.87 15.5699 125.265 18.7316 130.115 18.7316C130.245 18.7316 133.318 18.7095 135.173 16.746C135.33 16.5775 135.417 16.3639 135.417 16.146V11.4548C135.417 10.9484 134.966 10.5365 134.412 10.5365H128.395C127.842 10.5365 127.392 10.9484 127.392 11.4548C127.392 11.9612 127.842 12.3732 128.395 12.3732H133.264H133.408V12.5204V15.7068V15.7775L133.354 15.8217C132.077 16.866 130.134 16.895 130.115 16.895C126.082 16.895 125.832 14.0762 125.817 13.7323C125.794 13.2472 125.328 12.8515 124.777 12.8515C124.494 12.8608 124.226 12.98 124.043 13.1791Z" fill="#A1A3A8"/>
</g>
<defs>
<clipPath id="clip0">
<rect width="135.22" height="24" fill="white" transform="translate(0.197266)"/>
</clipPath>
</defs>
</svg>